<?xml version="1.0" encoding="UTF-8"?>
<svg version="1.1" viewBox="0 0 2048 338" width="1280" height="1280" xmlns="http://www.w3.org/2000/svg">
<path transform="translate(0)" d="m0 0h2048v338h-2048z"/>
<path transform="translate(443,89)" d="m0 0h13l17 3 15 6 14 10 10 9 9 11 8 14 5 11 5 17 2 16v9l-2 16-4 14-7 16-10 14-10 10-15 10-11 5-9 3-14 2h-13l-12-2-15-6-12-8-10-9-8-8-10-15-8-17-5-18-1-7v-21l3-15 5-15 8-15 9-12 10-10 14-9 8-4 9-3z"/>
<path transform="translate(590,81)" d="m0 0h69l14 2 13 4 11 6 9 8 5 8 3 9 1 7v12l-3 13-6 11-8 9-11 7-13 5-9 2 22 33 7 11 29 43 8 10 7 6 9 4-1 3-21-1-9-3-9-6-9-10-58-87-15-3 1 94 4 9 7 4v2h-46l1-3 6-4 3-5 1-3v-182l-3-7-5-4z" fill="#FDFDFD"/>
<path transform="translate(849,81)" d="m0 0h34l6 13 40 94 19 45 9 21 1 1 23-54 17-40 23-54 11-26h38l-4 4-6 5-2 5v184l4 8 7 4v2l-45 1-2-2 9-7 3-9v-169l-15 34-23 54-21 49-22 51-2 1-18-41-11-26-24-56-23-53-1-3v162l4 8 8 5v1h-37l9-9 2-6v-183l-3-7-8-5z" fill="#FCFCFC"/>
<path transform="translate(199,81)" d="m0 0h59l15 2 18 6 11 7 7 7 6 11 3 12v14l-2 8-7 14-12 12-11 7-16 6-16 3h-21l1 88 4 8 7 5-1 3-45-1 9-9 2-8v-179l-3-8-8-6z" fill="#FDFDFD"/>
<path transform="translate(440,78)" d="m0 0h25l15 2 21 7 18 10 12 11 5 5 9 11 9 17 5 15 3 15 1 11v9l-2 18-6 20-10 19-11 13-9 9-14 10-19 9-17 5-14 2h-26l-18-4-16-6-16-10-12-11-9-10-8-13-7-16-5-19-1-10v-13l2-17 5-18 9-19 10-14 13-13 14-10 16-8 16-5zm3 11-16 3-11 5-12 7-12 11-7 8-8 13-7 16-4 16-1 6v21l3 15 5 15 9 17 9 12 13 13 15 10 15 6 12 2h13l17-3 13-5 12-7 10-8 8-8 10-15 7-16 4-18 1-10v-9l-2-16-6-20-10-19-10-13-8-8-14-10-10-5-12-4-13-2z" fill="#FDFDFD"/>
<path transform="translate(1388,78)" d="m0 0h28l19 3 23 5v34l-4-2-6-12-4-5-10-6-15-4-7-1h-17l-19 3-12 4-15 8-11 9-8 9-8 13-6 14-4 16-1 8v18l3 17 6 17 9 16 9 11 9 9 10 7 10 6 16 6 10 2 11 1h11l13-2 11-4h2v-80l-3-8-5-4-4-2v-2l3-1h44l1 2-9 6-3 6-1 16v76l-7 3-20 4-16 2-23 1-20-2-16-4-15-6-16-10-12-11-7-7-9-13-8-17-5-18-2-16v-13l3-19 5-17 10-19 10-13 10-9 13-9 15-8 20-6z" fill="#FDFDFD"/>
<path transform="translate(1925,78)" d="m0 0 2 1 10 28 15 40 20 54 19 51 8 21 7 13 10 5-1 3h-43l-4-2 3-3 6-3-1-8-11-31-11-29-6-17v-2h-57l-3 10-18 50-7 20 1 7 7 5v2h-36l1-3 6-3 6-8 8-19 26-69 42-112z" fill="#FDFDFD"/>
<path transform="translate(1583,78)" d="m0 0 2 2 15 41 11 29 20 54 13 35 12 32 8 15 5 3 5 2v2h-48l1-3 6-3h2l-1-8-9-26-16-43-4-10-56-1-3 10-16 44-9 25v6l5 5 3 2v2h-37l4-4 6-4 7-12 54-144 14-37 5-13z" fill="#FDFDFD"/>
<path transform="translate(1180,78)" d="m0 0 3 3 7 20 21 56 16 43 20 54 10 25 6 8 8 4v3l-48-1 4-4 5-3-1-9-10-28-13-35-5-14h-56l-7 18-18 50-4 12 1 5 8 8h-37v-2l8-5h2l2-5 6-12 19-51 14-37 36-96z" fill="#FDFDFD"/>
<path transform="translate(93,78)" d="m0 0h23l38 6 1 3v29l-4 1-2-9-5-8-7-5-14-4-8-1h-19l-12 3-10 6-6 7-4 8-2 9v15l5 10 5 5 8 6 16 8 30 12 16 8 11 7 8 8 6 9 4 11 1 6v16l-2 10-5 12-8 10-11 9-14 6-10 3-15 2h-15l-20-4-27-7-2-2v-34h4l3 12 6 9 10 7 10 4 9 2h25l13-4 10-6 6-5 6-10 3-9 1-5v-8l-2-10-5-9-7-7-16-9-21-9-24-10-18-11-7-7-6-9-4-12v-20l4-13 7-11 8-8 12-7 16-5z" fill="#FDFDFD"/>
<path transform="translate(1692,81)" d="m0 0h131l-8 15-15 29-24 44-8 16-12 22-13 24-8 16-15 28-4 7 88-1 8-6 5-9 2-9 4 1v35h-138l2-6 12-22 13-25 12-22 13-25 12-22 12-23 12-22 13-25 5-9-79 1-8 5-6 10-3 9-3-1z" fill="#FDFDFD"/>
<path transform="translate(625,92)" d="m0 0h16l19 2 10 3 9 5 6 5 5 9 2 6v20l-4 11-6 8-7 6-10 5-10 2h-30z"/>
<path transform="translate(233,92)" d="m0 0h11l15 2 10 3 11 6 8 7 7 14 1 4v17l-3 9-6 8-9 8-10 5-11 3-6 1h-18z"/>
<path transform="translate(1919,122)" d="m0 0 2 2 13 36 10 28-5 1h-44l2-9 21-57z"/>
<path transform="translate(1576,122)" d="m0 0 3 3 18 49 4 11v4h-48l1-7 19-51z"/>
<path transform="translate(1174,123)" d="m0 0 3 3 13 36 9 24-1 3h-48l3-11 18-49z"/>
<path transform="translate(1361,37)" d="m0 0h2l7 11 9 6 10 3h18l11-4 7-5 7-11 2 1-1 8-7 11-7 7-12 6-5 1h-9l-12-4-9-7-7-9-4-9z" fill="#FDFDFD"/>
</svg>
