<?xml version="1.0" encoding="UTF-8"?>
<svg version="1.1" viewBox="0 0 2048 995" width="1280" height="1280" xmlns="http://www.w3.org/2000/svg">
<path transform="translate(903,443)" d="m0 0 22 1 3 5 23 54 19 45 6 13 6-13 23-54 19-45 2-5 25-1 1 2-6 4-2 3v125l3 6 5 5h-32l5-5 2-3v-116l-14 31-19 45-21 49h-2l-24-56-26-60-2-4v108l2 5 5 4v2h-23l1-3 5-4 1-11v-117l-3-5-4-3z" fill="#FEFEFE"/>
<path transform="translate(632,441)" d="m0 0 16 1 14 4 14 7 11 9 8 9 8 16 4 13 1 8v14l-3 16-5 12-7 11-8 9-11 8-14 7-15 4-8 1h-12l-16-3-12-5-11-7-8-7-10-14-6-14-3-16v-12l2-14 6-16 7-11 9-10 8-7 10-6 14-5zm-7 8-12 3-11 6-10 9-6 7-6 10-5 15-1 4v21l4 15 9 17 11 12 11 8 13 5 5 1h14l15-4 12-7 9-8 7-10 5-10 4-16v-16l-3-15-7-16-10-13-12-10-13-6-10-2z" fill="#FEFEFE"/>
<path transform="translate(727,443)" d="m0 0h35l17 1 14 4 9 6 5 6 4 10v15l-4 10-7 9-10 6-10 3h-3l40 60 8 9 7 4v2h-12l-9-3-6-4-10-13-29-44-6-8-10-2 1 63 2 5 5 4v2h-31l6-7 1-1 1-12v-45l-1-72-7-7zm23 8v55l1 1h20l10-3 8-6 6-9 1-5v-12l-3-8-5-6-8-4-8-2-10-1z" fill="#FEFEFE"/>
<path transform="translate(1274,441)" d="m0 0 19 1 22 5 1 22-2 1-6-10-7-6-9-3-7-1h-15l-14 3-16 8-9 8-8 12-5 14-2 10v16l4 16 8 16 7 9 10 8 11 6 12 4 7 1h15l13-4v-58l-6-7h30l-6 7-1 4-1 61-15 4-18 2h-17l-17-3-12-5-11-7-10-9-9-12-5-11-4-14-1-14 1-13 5-17 6-11 8-10 9-8 14-8 10-4 10-2z" fill="#FEFEFE"/>
<path transform="translate(462,443)" d="m0 0h20l25 1 12 3 11 6 7 7 4 9 1 4v12l-4 10-6 8-9 7-12 5-16 3h-10v57l2 7 5 4v2h-31l6-7 1-1v-129l-6-5zm23 8-1 1v58h15l13-4 9-7 5-8 1-3v-13l-4-10-5-5-7-5-10-3z" fill="#FEFEFE"/>
<path transform="translate(1557,443)" d="m0 0h6l-2 5-12 23-12 22-13 25-12 22-14 27-7 12h60l5-4 3-6 2-6 2 1v23l-1 1h-93l8-16 12-22 15-29 12-22 14-27 11-20h-54l-6 5-5 11h-1v-24z" fill="#FEFEFE"/>
<path transform="translate(384,442)" d="m0 0h26l21 4v21l-3-3-4-7-6-4-12-3h-15l-10 3-8 7-4 9-1 11 3 8 5 5 9 6 19 8 16 7 11 7 7 8 4 9 1 4v14l-4 12-8 10-11 7-15 4h-20l-17-4-12-3v-25h2l3 10 6 7 10 5 10 2h11l12-3 9-6 6-9 2-7v-10l-4-9-4-5-14-8-29-12-11-7-5-5-4-5-3-7-1-10 1-9 6-12 8-8 13-6z" fill="#FEFEFE"/>
<path transform="translate(1127,442)" d="m0 0 3 4 10 28 18 48 19 51 5 9 5 3 2 1v2h-32l1-3 4-2-1-7-10-28-8-22v-2l-39 1-17 48-2 9 5 4v2h-24v-2l6-4 8-16 19-51 13-35 14-37zm-5 30-15 41-1 4h33l-1-7-13-36-1-2z" fill="#FEFEFE"/>
<path transform="translate(1400,442)" d="m0 0 2 1 10 28 15 40 17 46 8 20 4 6 6 3v2h-32l1-3 4-2-1-8-15-41-3-10-39 1-13 37-6 17 1 4 4 3v2h-24l5-5 4-5 9-23 15-40 11-29 13-35zm-4 30-4 9-13 34v2h34l-3-10-12-33z" fill="#FEFEFE"/>
<path transform="translate(1632,442)" d="m0 0 3 3 7 20 26 70 15 40 5 8 6 3v2h-32v-2l5-3-1-8-17-47-1-4h-39l-3 10-15 42-1 7 4 2 1 3h-23l1-3 5-3 9-21 36-96 8-22zm-4 30-5 12-11 29v4h33l-1-5-14-39z" fill="#FEFEFE"/>
<path transform="translate(1205,638)" d="m0 0 4 1 10 23v2h2l2-6 8-18 2-2h3v34h-4l-1-25-9 20-2 4-3-3-9-21-1 25h-2z" fill="#FEFEFE"/>
<path transform="translate(1249,414)" d="m0 0 3 1 6 8 5 3 4 1h15l9-4 7-9h1l-1 7-6 8-6 5-5 2h-14l-9-6-6-7z" fill="#FEFEFE"/>
<path transform="translate(1072,638)" d="m0 0 9 1 6 4 4 6 1 9-4 8-6 5-2 1h-12l-7-5-4-8v-7l4-8 5-4zm-2 3-6 4-3 7 1 9 5 7 4 2h7l6-4 3-4 1-3v-7l-3-6-4-4-3-1z" fill="#FEFEFE"/>
<path transform="translate(530,638)" d="m0 0 12 1 4 2 2 4-1 5-5 5 2 5 7 10v2l-4-1-7-8-5-7-1 16h-4zm5 2-1 1v11l6 1 4-4-1-5-3-3z" fill="#FEFEFE"/>
<path transform="translate(1329,634)" d="m0 0 7 1 7 5 1 4-7-3h-6l-8 5-2 5v7l3 6v2l5 2 7 2h3l1-16 4-1v16l-2 3-10 1-8-3-6-6-2-6 1-9 4-6 6-4 3-1z" fill="#FEFEFE"/>
<path transform="translate(1120,638)" d="m0 0 12 1 5 3 1 6-3 5-3 2 2 5 7 10v2l-5-2-10-13h-2v15h-4zm5 2-2 2v8l1 3h6l4-4-1-6-6-3z" fill="#FEFEFE"/>
<path transform="translate(580,638)" d="m0 0h3v13l5-3 10-10 2 1-7 8-4 4 2 5 11 15-4 1-7-8-6-9-2-1v18h-4v-33z" fill="#FEFEFE"/>
<path transform="translate(878,638)" d="m0 0 4 2 7 10 9 14h1v-26h3v16l-1 18-4-2-7-10-9-15-1 27h-2z" fill="#FEFEFE"/>
<path transform="translate(789,638)" d="m0 0 4 1 7 10 10 16 1-27h2v34l-4-1-10-15-6-10-2-1 1 26-3 1z" fill="#FEFEFE"/>
<path transform="translate(478,638)" d="m0 0h5v26l1 5h9l2-1 1-4v-26h4v25l-2 6-4 3-8 1-5-3-3-6z" fill="#FEFEFE"/>
<path transform="translate(1529,638)" d="m0 0h7l5 3v2l-6-2-7 1-2 5 4 4 10 5 3 5-1 6-5 5-6 1-7-2-2-2v-3h2v2l3 1h8l3-3-1-6-13-7-2-3v-7l4-4z" fill="#FEFEFE"/>
<path transform="translate(714,638)" d="m0 0 18 1v3l-14-1v11h11v4h-11v14l13-1 1-2 1 4-1 1h-18l-1-19v-14z" fill="#FEFEFE"/>
<path transform="translate(1014,639)" d="m0 0h12l5 4v7l-6 5-7 1 1 16h-5zm4 2v12h6l3-2v-7l-3-3z" fill="#FEFEFE"/>
<path transform="translate(972,638)" d="m0 0h8l4 3v2l-6-2h-5l-3 2v6l13 7 3 3v7l-5 5-2 1h-10l-4-4h3l2 1h8l3-3v-7l-6-2-8-5-2-3 1-7z" fill="#FEFEFE"/>
<path transform="translate(1441,638)" d="m0 0h3l-2 6-13 25h12l3-1 1 3-1 1h-20l-1-2 14-26v-3l-14 1 1-3z" fill="#FEFEFE"/>
<path transform="translate(1482,639)" d="m0 0 3 3 10 27v3h-4l-5-14h-8l-5 13-3 2 1-6 8-21zm-1 8-2 4v4h6l-1-7z" fill="#FEFEFE"/>
<path transform="translate(1277,639)" d="m0 0 2 1 6 17 5 13v2l-5-1-4-12v-2h-9l-3 11-3 5-1-4 11-29zm-1 8-3 6v2h7l-2-8z" fill="#FEFEFE"/>
<path transform="translate(1384,640)" d="m0 0h2l10 27 1 5-2 1-3-3-4-12-9-1-2 9-3 6-2 1 2-9 9-23zm-1 7-2 5v3h6l-1-6-1-2z" fill="#FEFEFE"/>
<path transform="translate(662,638)" d="m0 0 5 1 7 12h2l7-13 3 1-9 16-1 17h-4l-1-17-9-16z" fill="#FEFEFE"/>
<path transform="translate(450,638)" d="m0 0 2 3-3 1-7-1v31h-4v-31l-10 1-1-2 2-1z" fill="#FEFEFE"/>
<path transform="translate(844,637)" d="m0 0 4 1v33l-5 1v-34z" fill="#FEFEFE"/>
<path transform="translate(631,637)" d="m0 0h3v35h-4v-34z" fill="#FEFEFE"/>
<path transform="translate(1571,638)" d="m0 0 4 1v33h-4z" fill="#FEFEFE"/>
<path transform="translate(759,639)" d="m0 0 4 1-1 6-3 1-1-7z" fill="#FEFEFE"/>
<path transform="translate(484,635)" d="m0 0h8l3 2h-12z" fill="#FEFEFE"/>
<path transform="translate(630,633)" d="m0 0h4v3h-3z" fill="#FEFEFE"/>
<path transform="translate(844,633)" d="m0 0h3v3h-3z" fill="#FEFEFE"/>
</svg>
